<svg width="14" height="15" viewBox="0 0 14 15" fill="none" xmlns="http://www.w3.org/2000/svg">
<g clip-path="url(#clip0_54_1320)">
<rect width="14" height="14" transform="translate(0 0.9375)" fill="white" fill-opacity="0.01"/>
<g clip-path="url(#clip1_54_1320)">
<path d="M11.6888 10.7699C13.1771 9.44168 13.9996 7.93668 13.9996 7.93668C13.9996 7.93668 11.3746 3.12418 6.99965 3.12418C6.15929 3.12707 5.32845 3.30218 4.5584 3.63868L5.23215 4.31331C5.79865 4.10694 6.39673 4.00065 6.99965 3.99918C8.85465 3.99918 10.3938 5.02118 11.5216 6.14906C12.0645 6.69478 12.5511 7.29367 12.9741 7.93668C12.9234 8.01281 12.8674 8.09681 12.8035 8.18868C12.5104 8.60868 12.0773 9.16868 11.5216 9.72431C11.3773 9.86868 11.2268 10.0113 11.0693 10.1496L11.6888 10.7699Z" fill="#6C757D"/>
<path d="M9.88452 8.96568C10.0798 8.41954 10.1159 7.82918 9.9888 7.2633C9.86165 6.69741 9.57643 6.17927 9.16631 5.76915C8.75619 5.35903 8.23804 5.0738 7.67216 4.94666C7.10627 4.81951 6.51591 4.85567 5.96977 5.05093L6.6899 5.77106C7.02617 5.72292 7.36903 5.75377 7.69131 5.86115C8.01359 5.96853 8.30644 6.14949 8.54664 6.38969C8.78684 6.62989 8.9678 6.92274 9.07518 7.24502C9.18256 7.5673 9.21341 7.91016 9.16527 8.24643L9.88452 8.96568ZM7.3094 10.1023L8.02865 10.8216C7.48251 11.0168 6.89215 11.053 6.32627 10.9258C5.76038 10.7987 5.24223 10.5135 4.83212 10.1033C4.422 9.69322 4.13677 9.17507 4.00962 8.60919C3.88248 8.0433 3.91864 7.45294 4.1139 6.90681L4.83402 7.62693C4.78589 7.9632 4.81674 8.30606 4.92412 8.62834C5.0315 8.95062 5.21246 9.24347 5.45266 9.48367C5.69286 9.72387 5.98571 9.90483 6.30799 10.0122C6.63027 10.1196 6.97313 10.1504 7.3094 10.1023Z" fill="#6C757D"/>
<path d="M2.9309 5.72293C2.7734 5.86293 2.62202 6.00468 2.47765 6.14906C1.93484 6.69478 1.44823 7.29367 1.02515 7.93668L1.19577 8.18868C1.4889 8.60868 1.92202 9.16868 2.47765 9.72431C3.60552 10.8522 5.14552 11.8742 6.99965 11.8742C7.62615 11.8742 8.2159 11.7578 8.76715 11.5592L9.4409 12.2347C8.67084 12.5712 7.84 12.7463 6.99965 12.7492C2.62465 12.7492 -0.000350952 7.93668 -0.000350952 7.93668C-0.000350952 7.93668 0.821274 6.43081 2.31052 5.10343L2.93002 5.72381L2.9309 5.72293ZM11.9399 13.4964L1.4399 2.99643L2.0594 2.37693L12.5594 12.8769L11.9399 13.4964Z" fill="#6C757D"/>
</g>
</g>
<defs>
<clipPath id="clip0_54_1320">
<rect width="14" height="14" fill="white" transform="translate(0 0.9375)"/>
</clipPath>
<clipPath id="clip1_54_1320">
<rect width="14" height="14" fill="white" transform="translate(0 0.9375)"/>
</clipPath>
</defs>
</svg>
