<svg width="20" height="21" viewBox="0 0 20 21" fill="none" xmlns="http://www.w3.org/2000/svg">
<path fill-rule="evenodd" clip-rule="evenodd" d="M2.9269 10.0625C3.95666 12.9763 6.73592 15.0625 10.0004 15.0625C13.2648 15.0625 16.0441 12.9763 17.0739 10.0625C16.0441 7.14871 13.2648 5.06249 10.0004 5.06249C6.73592 5.06249 3.95667 7.14868 2.9269 10.0625ZM1.2535 9.81276C2.42135 6.09451 5.89461 3.39583 10.0004 3.39583C14.1061 3.39583 17.5794 6.09455 18.7472 9.81282C18.7983 9.97538 18.7983 10.1497 18.7472 10.3122C17.5794 14.0305 14.1061 16.7292 10.0004 16.7292C5.89461 16.7292 2.42133 14.0304 1.2535 10.3122C1.20245 10.1496 1.20245 9.97531 1.2535 9.81276ZM10 8.39583C9.07953 8.39583 8.33333 9.14202 8.33333 10.0625C8.33333 10.983 9.07953 11.7292 10 11.7292C10.9205 11.7292 11.6667 10.983 11.6667 10.0625C11.6667 9.14202 10.9205 8.39583 10 8.39583ZM6.66667 10.0625C6.66667 8.22155 8.15905 6.72916 10 6.72916C11.8409 6.72916 13.3333 8.22155 13.3333 10.0625C13.3333 11.9034 11.8409 13.3958 10 13.3958C8.15905 13.3958 6.66667 11.9034 6.66667 10.0625Z" fill="#94A3B8"/>
</svg>
